<?xml version="1.0" encoding="UTF-8"?>
<svg id="Layer_1" data-name="Layer 1" xmlns="http://www.w3.org/2000/svg" xmlns:xlink="http://www.w3.org/1999/xlink" viewBox="0 0 1096.65 207.26">
  <defs>
    <style>
      .cls-1 {
        mask: url(#mask-2);
      }

      .cls-2 {
        mask: url(#mask-3);
      }

      .cls-3 {
        fill: #facc15;
      }

      .cls-3, .cls-4, .cls-5, .cls-6, .cls-7, .cls-8 {
        stroke-width: 0px;
      }

      .cls-4 {
        opacity: .68;
      }

      .cls-4, .cls-8 {
        fill: #3b82f6;
      }

      .cls-5 {
        fill: url(#linear-gradient);
      }

      .cls-5, .cls-7 {
        mix-blend-mode: multiply;
      }

      .cls-6 {
        fill: #fff;
        opacity: .7;
      }

      .cls-9 {
        filter: url(#luminosity-noclip);
      }

      .cls-10 {
        mask: url(#mask-1);
      }

      .cls-11 {
        mask: url(#mask);
      }

      .cls-7 {
        fill: url(#linear-gradient-2);
      }

      .cls-12 {
        filter: url(#luminosity-noclip-3);
      }
    </style>
    <filter id="luminosity-noclip" x="51.25" y="23.65" width="176.91" height="183.61" color-interpolation-filters="sRGB" filterUnits="userSpaceOnUse">
      <feFlood flood-color="#fff" result="bg"/>
      <feBlend in="SourceGraphic" in2="bg"/>
    </filter>
    <filter id="luminosity-noclip-2" x="51.25" y="-7469.7" width="176.91" height="32766" color-interpolation-filters="sRGB" filterUnits="userSpaceOnUse">
      <feFlood flood-color="#fff" result="bg"/>
      <feBlend in="SourceGraphic" in2="bg"/>
    </filter>
    <mask id="mask-1" x="51.25" y="-7469.7" width="176.91" height="32766" maskUnits="userSpaceOnUse"/>
    <linearGradient id="linear-gradient" x1="272.65" y1="123.42" x2="-240.89" y2="92.65" gradientUnits="userSpaceOnUse">
      <stop offset="0" stop-color="#fff"/>
      <stop offset=".86" stop-color="#fff"/>
      <stop offset="1" stop-color="#fff"/>
      <stop offset="1" stop-color="#fff"/>
      <stop offset="1" stop-color="#fff"/>
      <stop offset="1" stop-color="#f5f5f5"/>
      <stop offset="1" stop-color="#c7c7c7"/>
      <stop offset="1" stop-color="#9c9c9c"/>
      <stop offset="1" stop-color="#777"/>
      <stop offset="1" stop-color="#565656"/>
      <stop offset="1" stop-color="#3b3b3b"/>
      <stop offset="1" stop-color="#252525"/>
      <stop offset="1" stop-color="#141414"/>
      <stop offset="1" stop-color="#080808"/>
      <stop offset="1" stop-color="#010101"/>
      <stop offset="1" stop-color="#000"/>
    </linearGradient>
    <mask id="mask" x="51.25" y="23.65" width="176.91" height="183.61" maskUnits="userSpaceOnUse">
      <g class="cls-9">
        <g class="cls-10">
          <polyline class="cls-5" points="51.25 204.72 228.17 23.65 177.83 207.26 51.25 207.26"/>
        </g>
      </g>
    </mask>
    <filter id="luminosity-noclip-3" x="0" y="23.65" width="176.91" height="183.61" color-interpolation-filters="sRGB" filterUnits="userSpaceOnUse">
      <feFlood flood-color="#fff" result="bg"/>
      <feBlend in="SourceGraphic" in2="bg"/>
    </filter>
    <filter id="luminosity-noclip-4" x="0" y="-7469.7" width="176.91" height="32766" color-interpolation-filters="sRGB" filterUnits="userSpaceOnUse">
      <feFlood flood-color="#fff" result="bg"/>
      <feBlend in="SourceGraphic" in2="bg"/>
    </filter>
    <mask id="mask-3" x="0" y="-7469.7" width="176.91" height="32766" maskUnits="userSpaceOnUse"/>
    <linearGradient id="linear-gradient-2" x1="272.25" y1="130.26" x2="-241.29" y2="99.49" xlink:href="#linear-gradient"/>
    <mask id="mask-2" x="0" y="23.65" width="176.91" height="183.61" maskUnits="userSpaceOnUse">
      <g class="cls-12">
        <g class="cls-2">
          <polyline class="cls-7" points="176.91 204.72 0 23.65 50.33 207.26 176.91 207.26"/>
        </g>
      </g>
    </mask>
  </defs>
  <g>
    <path class="cls-8" d="m338.7,162.66V51.81h19.8v44.55h44.7v-44.55h19.65v110.85h-19.65v-49.05h-44.7v49.05h-19.8Z"/>
    <path class="cls-8" d="m469.5,164.76c-4.9,0-9.18-1.05-12.82-3.15-3.65-2.1-6.53-4.97-8.62-8.62-2.1-3.65-3.15-7.88-3.15-12.68,0-9,3.9-15.92,11.7-20.77,7.8-4.85,20.2-8.22,37.2-10.12-.1-3-.62-5.72-1.57-8.17-.95-2.45-2.5-4.4-4.65-5.85-2.15-1.45-5.08-2.17-8.78-2.17-4.2,0-8.25.8-12.15,2.4-3.9,1.6-7.7,3.55-11.4,5.85l-7.05-13.2c3.1-1.9,6.42-3.67,9.97-5.33,3.55-1.65,7.35-3,11.4-4.05,4.05-1.05,8.27-1.58,12.67-1.58,7,0,12.8,1.4,17.4,4.2,4.6,2.8,8.05,6.88,10.35,12.23,2.3,5.35,3.45,11.88,3.45,19.57v49.35h-16.05l-1.5-9.15h-.6c-3.7,3.1-7.7,5.75-12,7.95-4.3,2.2-8.9,3.3-13.8,3.3Zm6.3-15.6c3.3,0,6.38-.77,9.22-2.33,2.85-1.55,5.78-3.72,8.78-6.53v-18.6c-7.5.9-13.45,2.15-17.85,3.75-4.4,1.6-7.53,3.53-9.38,5.78-1.85,2.25-2.78,4.78-2.78,7.57,0,3.7,1.12,6.35,3.38,7.95,2.25,1.6,5.12,2.4,8.62,2.4Z"/>
    <path class="cls-8" d="m536.85,162.66v-83.25h16.05l1.65,11.4h.3c3.6-3.7,7.45-6.87,11.55-9.52,4.1-2.65,8.8-3.98,14.1-3.98,6.1,0,10.97,1.3,14.62,3.9,3.65,2.6,6.43,6.25,8.33,10.95,4-4.2,8.15-7.73,12.45-10.58,4.3-2.85,9.1-4.28,14.4-4.28,8.7,0,15.12,2.9,19.28,8.7,4.15,5.8,6.22,13.95,6.22,24.45v52.2h-19.5v-49.65c0-6.9-1.03-11.75-3.07-14.55-2.05-2.8-5.28-4.2-9.68-4.2-2.6,0-5.32.85-8.18,2.55-2.85,1.7-5.92,4.25-9.22,7.65v58.2h-19.65v-49.65c0-6.9-1.03-11.75-3.07-14.55-2.05-2.8-5.28-4.2-9.68-4.2-2.5,0-5.2.85-8.1,2.55-2.9,1.7-5.95,4.25-9.15,7.65v58.2h-19.65Z"/>
    <path class="cls-8" d="m689.7,64.86c-3.6,0-6.45-1.02-8.55-3.08-2.1-2.05-3.15-4.77-3.15-8.17s1.05-5.97,3.15-8.03c2.1-2.05,4.95-3.08,8.55-3.08,3.4,0,6.2,1.03,8.4,3.08,2.2,2.05,3.3,4.72,3.3,8.03s-1.1,6.13-3.3,8.17c-2.2,2.05-5,3.08-8.4,3.08Zm-9.9,97.8v-83.25h19.65v83.25h-19.65Z"/>
    <path class="cls-3" d="m758.25,164.76c-7.6,0-14.85-1.42-21.75-4.27-6.9-2.85-12.95-6.83-18.15-11.93l11.4-13.65c4,3.8,8.53,6.85,13.58,9.15,5.05,2.3,10.12,3.45,15.22,3.45,6.3,0,11.07-1.3,14.32-3.9,3.25-2.6,4.88-6,4.88-10.2,0-3.1-.75-5.6-2.25-7.5-1.5-1.9-3.53-3.53-6.07-4.88-2.55-1.35-5.47-2.72-8.78-4.12l-15.15-6.45c-3.6-1.5-7.12-3.5-10.57-6-3.45-2.5-6.3-5.67-8.55-9.53-2.25-3.85-3.38-8.42-3.38-13.72,0-6,1.6-11.35,4.8-16.05,3.2-4.7,7.62-8.42,13.28-11.17,5.65-2.75,12.07-4.12,19.27-4.12,6.5,0,12.75,1.25,18.75,3.75,6,2.5,11.15,5.95,15.45,10.35l-10.2,12.6c-3.5-3-7.18-5.35-11.02-7.05-3.85-1.7-8.18-2.55-12.98-2.55-5.2,0-9.35,1.15-12.45,3.45-3.1,2.3-4.65,5.45-4.65,9.45,0,2.9.83,5.3,2.47,7.2,1.65,1.9,3.8,3.48,6.45,4.73,2.65,1.25,5.52,2.53,8.62,3.83l14.85,6.15c4.4,1.8,8.27,4.03,11.62,6.67,3.35,2.65,5.97,5.85,7.88,9.6,1.9,3.75,2.85,8.33,2.85,13.72,0,6-1.57,11.5-4.72,16.5-3.15,5-7.7,9-13.65,12-5.95,3-13.08,4.5-21.38,4.5Z"/>
    <path class="cls-3" d="m816.6,162.66V43.11h19.35v74.25h.6l30.3-37.95h21.75l-28.35,34.05,31.2,49.2h-21.3l-21.45-36.15-12.75,14.85v21.3h-19.35Z"/>
    <path class="cls-3" d="m914.85,64.86c-3.6,0-6.45-1.02-8.55-3.08-2.1-2.05-3.15-4.77-3.15-8.17s1.05-5.97,3.15-8.03c2.1-2.05,4.95-3.08,8.55-3.08,3.4,0,6.2,1.03,8.4,3.08,2.2,2.05,3.3,4.72,3.3,8.03s-1.1,6.13-3.3,8.17c-2.2,2.05-5,3.08-8.4,3.08Zm-9.9,97.8v-83.25h19.65v83.25h-19.65Z"/>
    <path class="cls-3" d="m968.25,164.76c-4.6,0-8.3-.97-11.1-2.92-2.8-1.95-4.8-4.7-6-8.25-1.2-3.55-1.8-7.67-1.8-12.38V43.11h19.65v99c0,2.4.45,4.08,1.35,5.02.9.95,1.85,1.42,2.85,1.42.4,0,.8-.02,1.2-.07.4-.05,1-.12,1.8-.23l2.4,14.7c-1.2.5-2.62.92-4.28,1.28-1.65.35-3.68.52-6.08.52Z"/>
    <path class="cls-3" d="m1014.15,164.76c-4.6,0-8.3-.97-11.1-2.92-2.8-1.95-4.8-4.7-6-8.25-1.2-3.55-1.8-7.67-1.8-12.38V43.11h19.65v99c0,2.4.45,4.08,1.35,5.02.9.95,1.85,1.42,2.85,1.42.4,0,.8-.02,1.2-.07.4-.05,1-.12,1.8-.23l2.4,14.7c-1.2.5-2.62.92-4.28,1.28-1.65.35-3.67.52-6.07.52Z"/>
    <path class="cls-3" d="m1064.4,164.76c-5.7,0-11.35-1.1-16.95-3.3-5.6-2.2-10.45-5-14.55-8.4l9-12.6c3.7,2.9,7.4,5.2,11.1,6.9,3.7,1.7,7.65,2.55,11.85,2.55,4.5,0,7.85-.95,10.05-2.85,2.2-1.9,3.3-4.3,3.3-7.2,0-2.3-.88-4.22-2.62-5.78-1.75-1.55-4-2.92-6.75-4.12-2.75-1.2-5.58-2.35-8.47-3.45-3.6-1.4-7.15-3.1-10.65-5.1-3.5-2-6.4-4.55-8.7-7.65-2.3-3.1-3.45-6.95-3.45-11.55s1.22-9.08,3.68-12.83c2.45-3.75,5.95-6.7,10.5-8.85,4.55-2.15,9.92-3.23,16.12-3.23,5.8,0,11.02,1,15.67,3,4.65,2,8.62,4.35,11.93,7.05l-9,12c-2.9-2.1-5.85-3.83-8.85-5.18-3-1.35-6.1-2.02-9.3-2.02-4.2,0-7.3.88-9.3,2.62-2,1.75-3,3.93-3,6.52,0,2.2.77,4,2.33,5.4,1.55,1.4,3.62,2.62,6.22,3.67,2.6,1.05,5.4,2.13,8.4,3.23,2.9,1.1,5.75,2.3,8.55,3.6,2.8,1.3,5.35,2.9,7.65,4.8,2.3,1.9,4.12,4.2,5.47,6.9,1.35,2.7,2.03,6,2.03,9.9,0,4.8-1.22,9.18-3.67,13.12-2.45,3.95-6.08,7.08-10.88,9.38-4.8,2.3-10.7,3.45-17.7,3.45Z"/>
  </g>
  <g>
    <g class="cls-11">
      <polyline class="cls-3" points="51.25 204.72 228.17 23.65 177.83 207.26 51.25 207.26"/>
    </g>
    <g class="cls-1">
      <polyline class="cls-4" points="176.91 204.72 0 23.65 50.33 207.26 176.91 207.26"/>
    </g>
    <circle class="cls-6" cx="116.39" cy="24.53" r="24.53" transform="translate(73.53 135.5) rotate(-80.78)"/>
  </g>
</svg>